<?xml version="1.0" encoding="UTF-8" standalone="no"?>
<svg width="31px" height="39px" viewBox="0 0 31 39" version="1.1" xmlns="http://www.w3.org/2000/svg" xmlns:xlink="http://www.w3.org/1999/xlink">
    <!-- Generator: Sketch 3.7.1 (28215) - http://www.bohemiancoding.com/sketch -->
    <title>Path 11</title>
    <desc>Created with Sketch.</desc>
    <defs></defs>
    <g id="Page-1" stroke="none" stroke-width="1" fill="none" fill-rule="evenodd">
        <path d="M19.9960938,0.44921875 C19.9960938,10.4775741 17.3719632,27.5190225 24.078125,37.7226562 C25.1916037,39.4168487 24.7244185,33.562194 24.078125,31.640625 C22.6342568,27.3476955 20.5890839,23.1948858 17.953125,19.5117188 C15.4550209,16.0211733 4.83600225,11.86116 8.8671875,10.3867188 C15.3665843,8.00950748 32.8570137,9.72926099 28.9960938,15.4726562 L28.9960938,17.4726562 C28.5698566,18.1067145 27.7095059,18.4040343 26.953125,18.5117188 L12.4882813,18.5117188 C9.89987845,18.8802245 7.4867908,20.1998117 5.27734375,21.5976562 C3.64182369,22.632396 -0.00364124973,24.1313982 1.15234375,25.6835938 C6.76964785,33.2262126 25.0198463,12.1658789 28.8671875,8.953125" id="Path-11" stroke="#000000"></path>
    </g>
</svg>